<svg width="1589" height="66" xmlns="http://www.w3.org/2000/svg" xmlns:xlink="http://www.w3.org/1999/xlink"><defs><path id="a" d="M0 0h1600v66H0z"/></defs><g transform="translate(-11)" fill="none" fill-rule="evenodd"><mask id="b" fill="#fff"><use xlink:href="#a"/></mask><path d="M171.004 13.573l3.645 6.48a.5.5 0 0 1-.436.745h-7.29a.5.5 0 0 1-.436-.745l3.645-6.48a.5.5 0 0 1 .872 0z" fill="#EF52D1" mask="url(#b)" transform="rotate(116 170.568 16.798)"/><path d="M765.446 58.785l3.645 6.48a.5.5 0 0 1-.436.745h-7.29a.5.5 0 0 1-.435-.745l3.645-6.48a.5.5 0 0 1 .871 0z" fill="#EF52D1" mask="url(#b)" transform="rotate(118 765.01 62.01)"/><path d="M1437.683 48.332l3.645 6.48a.5.5 0 0 1-.436.745h-7.29a.5.5 0 0 1-.436-.745l3.645-6.48a.5.5 0 0 1 .872 0z" fill="#EF52D1" mask="url(#b)" transform="rotate(-13 1437.247 51.557)"/><path d="M1541.864 59.86l3.645 6.48a.5.5 0 0 1-.436.745h-7.29a.5.5 0 0 1-.436-.745l3.645-6.48a.5.5 0 0 1 .872 0z" fill="#EF52D1" mask="url(#b)" transform="rotate(-16 1541.428 63.085)"/><path d="M1378.331.317l4.134 7.166a.5.5 0 0 1-.433.75h-8.268a.5.5 0 0 1-.433-.75l4.134-7.166a.5.5 0 0 1 .866 0z" fill="#EF52D1" mask="url(#b)" transform="rotate(-76 1377.898 3.9)"/><path d="M86.062-1.447L91.207 7.7a.5.5 0 0 1-.435.745h-10.29a.5.5 0 0 1-.436-.745l5.145-9.147a.5.5 0 0 1 .871 0z" fill="#EF52D1" mask="url(#b)" transform="rotate(-76 85.626 3.112)"/><path d="M364.36 14.943l4.134 7.166a.5.5 0 0 1-.433.75h-8.268a.5.5 0 0 1-.433-.75l4.134-7.166a.5.5 0 0 1 .866 0z" fill="#EF52D1" mask="url(#b)" transform="rotate(-95 363.927 18.525)"/><path d="M1124 63.555c.673-.542 1.357.3 2.03-.251.673-.551-.01-1.383.663-1.934.674-.552 1.357.3 2.03-.25.674-.552-.01-1.384.664-1.935.673-.551 1.356.3 2.03-.25.673-.552-.01-1.384.673-1.935" stroke="#7C40FF" stroke-width="1.548" stroke-linecap="round" stroke-linejoin="round" mask="url(#b)"/><path d="M1343.71 31.49c.674-.541 1.357.3 2.03-.25.674-.552-.01-1.384.664-1.935.673-.551 1.356.3 2.03-.25.673-.552-.01-1.384.663-1.935.673-.551 1.357.3 2.03-.25.673-.552-.01-1.384.673-1.935" stroke="#7C40FF" stroke-width="1.548" stroke-linecap="round" stroke-linejoin="round" mask="url(#b)" transform="rotate(-15 1347.755 28.213)"/><path d="M212 44.175c.84-.675 1.692.375 2.532-.313.84-.687-.013-1.724.827-2.412s1.692.375 2.532-.313c.84-.687-.013-1.724.827-2.412s1.692.375 2.532-.313c.84-.687-.012-1.724.84-2.412" stroke="#FFA039" stroke-width="1.548" stroke-linecap="round" stroke-linejoin="round" mask="url(#b)"/><path d="M392.64 46.588c.757-.593 1.525.329 2.281-.275.757-.603-.011-1.514.745-2.117.757-.604 1.525.329 2.281-.274.757-.604-.011-1.514.746-2.118.756-.603 1.524.33 2.28-.274.757-.603-.01-1.514.757-2.117" stroke="#EF52D1" stroke-width="1.548" stroke-linecap="round" stroke-linejoin="round" mask="url(#b)" transform="rotate(-82 397.185 43)"/><path d="M1080 8.175c.84-.675 1.692.375 2.532-.313.84-.687-.013-1.724.827-2.412s1.692.375 2.532-.313c.84-.687-.013-1.724.827-2.412s1.692.375 2.532-.313c.84-.687-.012-1.724.84-2.412" stroke="#FFA039" stroke-width="1.548" stroke-linecap="round" stroke-linejoin="round" mask="url(#b)" transform="rotate(-98 1085.045 4.087)"/><circle stroke="#45F0F4" stroke-width="2" stroke-linecap="round" stroke-linejoin="round" mask="url(#b)" cx="256" cy="61" r="3"/><ellipse stroke="#FCDF35" stroke-width="2" stroke-linecap="round" stroke-linejoin="round" mask="url(#b)" cx="653.505" cy="53.5" rx="3.505" ry="3.5"/><ellipse stroke="#EF52D1" stroke-width="2.5" stroke-linecap="round" stroke-linejoin="round" mask="url(#b)" cx="1231.004" cy="17" rx="4.004" ry="4"/><ellipse stroke="#7C40FF" stroke-width="2" stroke-linecap="round" stroke-linejoin="round" mask="url(#b)" cx="1317.504" cy="59.5" rx="2.504" ry="2.5"/><path d="M1499.272 12.883l5.145 9.147a.5.5 0 0 1-.436.745h-10.29a.5.5 0 0 1-.436-.745l5.145-9.147a.5.5 0 0 1 .872 0z" fill="#EF52D1" mask="url(#b)" transform="rotate(-95 1498.836 17.442)"/><path d="M470.406 31.109l3.645 6.48a.5.5 0 0 1-.436.745h-7.29a.5.5 0 0 1-.436-.745l3.645-6.48a.5.5 0 0 1 .872 0z" fill="#45F0F4" mask="url(#b)" transform="rotate(-104 469.97 34.334)"/><path d="M540.653 1.923a2.31 2.31 0 0 1 .278 2.109l-1.789 4.496a.162.162 0 0 1-.209.115l-4.74-.903a2.32 2.32 0 0 1-1.805-2.132 2.317 2.317 0 0 1 1.559-2.317c.98-.34 2.066.01 2.662.857a2.314 2.314 0 0 1 1.026-2.913 2.328 2.328 0 0 1 3.018.688z" fill="#EF52D1" fill-rule="nonzero" mask="url(#b)" transform="rotate(51 536.727 4.799)"/><path d="M124.324 30.173c-.498 2.657-.758 3.982-.78 3.975l-4.407-1.121a1.784 1.784 0 0 1-.19-3.424 1.79 1.79 0 0 1 2.05.66 1.781 1.781 0 0 1 .79-2.243 1.792 1.792 0 0 1 2.323.53 1.78 1.78 0 0 1 .214 1.623z" fill="#7C40FF" fill-rule="nonzero" mask="url(#b)" transform="rotate(16 121.088 30.973)"/><path d="M136.04 59.2l3.138 5.492a.5.5 0 0 1-.434.748h-6.277a.5.5 0 0 1-.434-.748l3.139-5.492a.5.5 0 0 1 .868 0z" fill="#45F0F4" mask="url(#b)" transform="rotate(-104 135.606 61.94)"/><path d="M1604.406 31.109l3.645 6.48a.5.5 0 0 1-.436.745h-7.29a.5.5 0 0 1-.436-.745l3.645-6.48a.5.5 0 0 1 .872 0z" fill="#45F0F4" mask="url(#b)" transform="rotate(-104 1603.97 34.334)"/><path d="M202.267 33.053l2.145 3.813a.5.5 0 0 1-.436.746h-4.29a.5.5 0 0 1-.436-.746l2.145-3.813a.5.5 0 0 1 .872 0z" fill="#45F0F4" mask="url(#b)" transform="rotate(59 201.83 34.945)"/><path d="M1426.884 10.668l3.645 6.48a.5.5 0 0 1-.435.745h-7.29a.5.5 0 0 1-.436-.745l3.645-6.48a.5.5 0 0 1 .871 0z" fill="#45F0F4" mask="url(#b)" transform="rotate(-96 1426.448 13.893)"/><path d="M1559.884 30.668l3.645 6.48a.5.5 0 0 1-.435.745h-7.29a.5.5 0 0 1-.436-.745l3.645-6.48a.5.5 0 0 1 .871 0z" fill="#45F0F4" mask="url(#b)" transform="rotate(-96 1559.448 33.893)"/><path d="M131.884 10.668l3.645 6.48a.5.5 0 0 1-.435.745h-7.29a.5.5 0 0 1-.436-.745l3.645-6.48a.5.5 0 0 1 .871 0z" fill="#45F0F4" mask="url(#b)" transform="rotate(-96 131.448 13.893)"/><path d="M1262.01 39.958l3.138 5.492a.5.5 0 0 1-.434.748h-6.276a.5.5 0 0 1-.435-.748l3.139-5.492a.5.5 0 0 1 .868 0z" fill="#7C40FF" mask="url(#b)" transform="rotate(-104 1261.576 42.698)"/><path d="M1301.126 16.951c2.122.02 3.433 3.846 2.854 4.414-.212.192-.732.028-1.06-.068-.82-.24-1.051-.73-1.774-.76a2.484 2.484 0 0 0-.617.087c-.887.183-1.138.5-1.64.433-.019-.01-.5-.077-.684-.356-.53-.798 1.041-3.77 2.921-3.75zm-1.909-1.279c.251.78-.019 1.568-.617 1.75-.597.183-1.282-.298-1.533-1.086-.25-.789.02-1.568.617-1.75.598-.183 1.273.298 1.533 1.086zm2.575-1.932c.115 1.057-.318 1.97-.984 2.038-.665.067-1.301-.721-1.417-1.779-.116-1.058.318-1.971.983-2.038.666-.068 1.292.73 1.418 1.779zm2.709.923c-.395.894-1.167 1.432-1.726 1.192-.56-.24-.704-1.154-.308-2.048.395-.894 1.166-1.433 1.725-1.192.56.24.695 1.153.309 2.048zm1.514 3.144c-.482.817-1.321 1.23-1.88.913-.56-.317-.608-1.23-.116-2.048.492-.817 1.32-1.23 1.88-.913.56.317.598 1.23.116 2.048z" fill="#45F0F4" fill-rule="nonzero" mask="url(#b)" transform="rotate(-18 1301.662 16.705)"/><path d="M435.004.573l3.645 6.48a.5.5 0 0 1-.436.745h-7.29a.5.5 0 0 1-.436-.745l3.645-6.48a.5.5 0 0 1 .872 0z" fill="#7C40FF" mask="url(#b)" transform="rotate(-64 434.568 3.798)"/><path d="M1569.004.573l3.645 6.48a.5.5 0 0 1-.436.745h-7.29a.5.5 0 0 1-.436-.745l3.645-6.48a.5.5 0 0 1 .872 0z" fill="#7C40FF" mask="url(#b)" transform="rotate(-64 1568.568 3.798)"/><path d="M444.74 54.543l3.645 6.48a.5.5 0 0 1-.436.745h-7.29a.5.5 0 0 1-.436-.745l3.645-6.48a.5.5 0 0 1 .872 0z" fill="#7C40FF" mask="url(#b)" transform="rotate(86 444.304 57.768)"/><path d="M1578.74 54.543l3.645 6.48a.5.5 0 0 1-.436.745h-7.29a.5.5 0 0 1-.436-.745l3.645-6.48a.5.5 0 0 1 .872 0z" fill="#7C40FF" mask="url(#b)" transform="rotate(86 1578.304 57.768)"/><path d="M224.514 9.312l4.64 8.156a.5.5 0 0 1-.434.747h-9.28a.5.5 0 0 1-.435-.747l4.64-8.156a.5.5 0 0 1 .87 0z" fill="#7C40FF" mask="url(#b)" transform="rotate(-174 224.08 13.382)"/><path d="M1403.092 39.933l2.145 3.814a.5.5 0 0 1-.436.745h-4.29a.5.5 0 0 1-.436-.745l2.146-3.814a.5.5 0 0 1 .871 0z" fill="#7C40FF" mask="url(#b)" transform="rotate(66 1402.656 41.825)"/><path d="M107.836 41.07l1.634 2.832a.5.5 0 0 1-.433.75h-3.268a.5.5 0 0 1-.433-.75l1.634-2.833a.5.5 0 0 1 .866 0z" fill="#7C40FF" mask="url(#b)" transform="rotate(66 107.403 42.485)"/><path d="M741.884.668l3.645 6.48a.5.5 0 0 1-.435.745h-7.29a.5.5 0 0 1-.436-.745l3.645-6.48a.5.5 0 0 1 .871 0z" fill="#7C40FF" mask="url(#b)" transform="rotate(86 741.448 3.893)"/><path d="M22.373 56.182l5.145 9.147a.5.5 0 0 1-.436.745h-10.29a.5.5 0 0 1-.436-.745l5.145-9.147a.5.5 0 0 1 .872 0z" fill="#7C40FF" mask="url(#b)" transform="rotate(-147 21.937 60.74)"/><path d="M283.098-2.669l5.145 9.147a.5.5 0 0 1-.436.745h-10.29a.5.5 0 0 1-.436-.745l5.145-9.147a.5.5 0 0 1 .872 0z" fill="#FFA039" mask="url(#b)" transform="rotate(59 282.662 1.89)"/><path d="M338.292 42.421l3.138 5.492a.5.5 0 0 1-.434.748h-6.277a.5.5 0 0 1-.434-.748l3.139-5.492a.5.5 0 0 1 .868 0z" fill="#FFA039" mask="url(#b)" transform="rotate(35 337.858 45.161)"/><path d="M1474.498 43.704l2.117 3.528a.5.5 0 0 1-.429.757h-4.233a.5.5 0 0 1-.43-.757l2.118-3.528a.5.5 0 0 1 .857 0z" fill="#FFA039" mask="url(#b)" transform="rotate(35 1474.07 45.49)"/><path d="M176.272 57.883l5.145 9.147a.5.5 0 0 1-.436.745h-10.29a.5.5 0 0 1-.436-.745l5.145-9.147a.5.5 0 0 1 .872 0z" fill="#FFA039" mask="url(#b)" transform="rotate(-95 175.836 62.442)"/><path d="M305.742 29.527c2.348.021 3.799 4.256 3.159 4.884-.235.213-.811.032-1.174-.074-.907-.266-1.163-.809-1.963-.84a2.75 2.75 0 0 0-.683.095c-.982.202-1.26.553-1.814.479-.021-.01-.555-.085-.758-.394-.586-.883 1.153-4.171 3.233-4.15zm-2.112-1.415c.277.862-.022 1.734-.683 1.936-.662.203-1.42-.33-1.697-1.202-.277-.873.022-1.734.683-1.937.662-.202 1.409.33 1.697 1.203zm2.849-2.139c.128 1.17-.352 2.181-1.089 2.256-.736.074-1.44-.798-1.568-1.969-.128-1.17.352-2.181 1.088-2.256.736-.074 1.43.81 1.569 1.969zm2.998 1.021c-.438.99-1.291 1.586-1.91 1.32s-.779-1.277-.341-2.267c.437-.99 1.29-1.585 1.91-1.319.618.266.768 1.277.34 2.266zm1.675 3.48c-.533.905-1.462 1.362-2.08 1.011-.62-.351-.673-1.362-.129-2.267.545-.904 1.462-1.362 2.081-1.01.619.35.662 1.362.128 2.266z" fill="#7C40FF" fill-rule="nonzero" mask="url(#b)" transform="rotate(-17 306.335 29.255)"/><path d="M1220.876 48.48l3.645 6.48a.5.5 0 0 1-.436.745h-7.29a.5.5 0 0 1-.436-.745l3.646-6.48a.5.5 0 0 1 .871 0z" fill="#FFA039" mask="url(#b)" transform="rotate(113 1220.44 51.705)"/><path d="M36.438-1.881l2.145 3.813a.5.5 0 0 1-.436.745h-4.29a.5.5 0 0 1-.436-.745l2.145-3.813a.5.5 0 0 1 .872 0z" fill="#FFA039" mask="url(#b)" transform="rotate(134 36.002 .01)"/><path d="M16.204 15.079l3.645 6.48a.5.5 0 0 1-.436.745h-7.29a.5.5 0 0 1-.436-.745l3.645-6.48a.5.5 0 0 1 .872 0z" fill="#FFA039" mask="url(#b)" transform="rotate(4 15.768 18.304)"/><path d="M890.673 10.222l5.145 9.147a.5.5 0 0 1-.435.745h-10.29a.5.5 0 0 1-.436-.745l5.145-9.147a.5.5 0 0 1 .871 0z" fill="#45F0F4" mask="url(#b)" transform="rotate(164 890.238 14.78)"/><path d="M922.025 47.36c.282.403.35.918.183 1.38l-1.172 2.943a.106.106 0 0 1-.136.076l-3.103-.592a1.517 1.517 0 0 1-.161-2.912 1.523 1.523 0 0 1 1.743.561 1.515 1.515 0 0 1 .67-1.906 1.524 1.524 0 0 1 1.976.45z" fill="#FFA039" fill-rule="nonzero" mask="url(#b)" transform="rotate(17 919.455 49.243)"/><path d="M549.884 57.668l3.645 6.48a.5.5 0 0 1-.435.745h-7.29a.5.5 0 0 1-.436-.745l3.645-6.48a.5.5 0 0 1 .871 0z" fill="#FCDF35" mask="url(#b)" transform="rotate(-105 549.448 60.893)"/><path d="M1183.45 40.097l2.145 3.814a.5.5 0 0 1-.436.745h-4.29a.5.5 0 0 1-.436-.745l2.145-3.814a.5.5 0 0 1 .872 0z" fill="#FCDF35" mask="url(#b)" transform="rotate(-138 1183.014 41.99)"/><path d="M1358.332 33.032l2.117 3.528a.5.5 0 0 1-.429.757h-4.234a.5.5 0 0 1-.428-.757l2.116-3.528a.5.5 0 0 1 .858 0z" fill="#FCDF35" mask="url(#b)" transform="rotate(38 1357.903 34.817)"/><path d="M60.444 30.697l3.646 6.48a.5.5 0 0 1-.436.746h-7.29a.5.5 0 0 1-.436-.746l3.645-6.48a.5.5 0 0 1 .871 0z" fill="#FCDF35" mask="url(#b)" transform="rotate(38 60.009 33.923)"/><path d="M1003.816 53.349l5.145 9.147a.5.5 0 0 1-.436.745h-10.29a.5.5 0 0 1-.436-.745l5.145-9.147a.5.5 0 0 1 .872 0z" fill="#FCDF35" mask="url(#b)" transform="rotate(-101 1003.38 57.907)"/><path d="M385.84 46.095l1.646 2.925a.5.5 0 0 1-.436.745h-3.29a.5.5 0 0 1-.436-.745l1.645-2.925a.5.5 0 0 1 .872 0z" fill="#FCDF35" mask="url(#b)" transform="rotate(-55 385.405 47.543)"/><path d="M81.34 63.095l2.146 3.814a.5.5 0 0 1-.436.745h-4.29a.5.5 0 0 1-.436-.745l2.145-3.814a.5.5 0 0 1 .872 0z" fill="#FCDF35" mask="url(#b)" transform="rotate(-55 80.905 64.987)"/><path d="M1520.34 46.095l2.146 3.814a.5.5 0 0 1-.436.745h-4.29a.5.5 0 0 1-.436-.745l2.145-3.814a.5.5 0 0 1 .872 0z" fill="#FCDF35" mask="url(#b)" transform="rotate(-55 1519.905 47.987)"/><path d="M1596.34 21.095l2.146 3.814a.5.5 0 0 1-.436.745h-4.29a.5.5 0 0 1-.436-.745l2.145-3.814a.5.5 0 0 1 .872 0z" fill="#FCDF35" mask="url(#b)" transform="rotate(-55 1595.905 22.987)"/><path d="M1151.317 16.766l3.645 6.48a.5.5 0 0 1-.436.746h-7.29a.5.5 0 0 1-.436-.745l3.645-6.48a.5.5 0 0 1 .872 0z" fill="#FCDF35" mask="url(#b)" transform="rotate(126 1150.881 19.992)"/><path d="M1446.24 35.886c1.67.015 2.7 3.025 2.246 3.472-.167.151-.577.022-.835-.053-.644-.19-.826-.575-1.395-.598a1.954 1.954 0 0 0-.486.068c-.697.144-.895.394-1.29.34-.014-.007-.394-.06-.538-.28-.417-.627.82-2.964 2.299-2.95zm-1.501-1.006c.197.612-.015 1.233-.486 1.376-.47.144-1.008-.234-1.206-.854-.197-.62.016-1.233.486-1.377.47-.144 1.001.234 1.206.855zm2.025-1.52c.091.831-.25 1.55-.774 1.603-.523.053-1.024-.567-1.115-1.4-.09-.832.25-1.55.774-1.603.523-.053 1.016.575 1.115 1.4zm2.131.725c-.31.704-.917 1.127-1.357.938-.44-.189-.554-.907-.243-1.61.31-.704.918-1.128 1.358-.939.44.19.546.908.242 1.611zm1.191 2.474c-.38.643-1.039.968-1.479.719-.44-.25-.478-.969-.091-1.612.387-.643 1.04-.968 1.48-.718.439.25.47.968.09 1.61z" fill="#FFA039" fill-rule="nonzero" mask="url(#b)" transform="rotate(18 1446.662 35.692)"/></g></svg>