<svg width="312" height="225" xmlns="http://www.w3.org/2000/svg" xmlns:xlink="http://www.w3.org/1999/xlink"><defs><path d="M112.708 217.023c59.827 0 108.326-48.52 108.326-108.373 0-59.854 6.832-108.374-108.326-108.374C-2.449.276 4.382 48.796 4.382 108.65c0 59.853 48.5 108.373 108.326 108.373z" id="a"/><path d="M7.246 4.68c0 2.341-1.607 3.646-3.598 3.646-1.992 0-3.599-1.305-3.599-3.645S2.061.07 3.648.07c1.587 0 3.598 2.27 3.598 4.61z" id="c"/><path d="M9.82 6.284c0 3.177-2.19 4.95-4.88 4.95-2.692 0-4.88-1.773-4.88-4.95C.06 3.107 2.78.03 4.94.03c2.159 0 4.88 3.077 4.88 6.254z" id="e"/><path d="M7.197 4.74c0 2.38-1.607 3.705-3.598 3.705C1.607 8.445 0 7.121 0 4.741S2.011.05 3.599.05c1.587 0 3.598 2.31 3.598 4.69z" id="g"/><path d="M9.77 6.454c0 3.226-2.188 5.03-4.88 5.03C2.2 11.483.01 9.68.01 6.453.01 3.227 2.73.09 4.89.09c2.16 0 4.88 3.127 4.88 6.364z" id="i"/><path d="M7.256 4.7c0 2.381-1.607 3.706-3.598 3.706C1.666 8.406.059 7.08.059 4.7S2.07.01 3.658.01c1.587 0 3.598 2.31 3.598 4.69z" id="k"/><path d="M9.83 6.404c0 3.227-2.19 5.03-4.88 5.03-2.692 0-4.881-1.803-4.881-5.03C.069 3.177 2.79.04 4.949.04c2.16 0 4.88 3.137 4.88 6.364z" id="m"/><ellipse id="o" cx="109.241" cy="108.881" rx="108.403" ry="108.374"/><path d="M64.712 63.118c-34.977 1.597-55.66 2.41-62.05 2.437-2.349.01-7.53 3.131-10.93 3.536-3.398.404-7.032-.748-9.143-5.397-4.364-1.214-6.044-3.242-7.041-4.937-1.209-2.053-1.862-5.918-.567-7.85-.971-1.71-1.214-4.531.567-8.173 1.78-3.642 3.486-3.56 7.041-4.37 1.949-3.356 5.178-5.746 9.144-5.34 3.966.404 7.413 3.744 10.326 3.757 6.336.027 28.48-3.387 66.43-10.243l-3.777 36.58z" id="q"/><ellipse id="r" cx="109.241" cy="108.881" rx="108.403" ry="108.374"/><path d="M63.39 61.858C29.127 63.424 8.866 64.22 2.607 64.247c-2.3.01-7.376 3.069-10.706 3.465-3.33.397-6.89-.733-8.957-5.29-4.275-1.189-5.92-3.177-6.897-4.837-1.184-2.013-1.824-5.8-.555-7.693-.952-1.676-1.19-4.442.555-8.01 1.744-3.57 3.415-3.49 6.897-4.283 1.91-3.29 5.072-5.631 8.957-5.235 3.885.397 7.262 3.67 10.116 3.683 6.206.027 27.897-3.32 65.073-10.039l-3.7 35.85z" id="t"/><path d="M43 21.341C43 9.555 33.374 0 21.5 0S0 9.555 0 21.341v11.154C0 37.723 4.309 42 9.575 42h23.85C38.691 42 43 37.723 43 32.495V21.34z" id="u"/><path d="M43 21.347C43 9.561 33.374.006 21.5.006S0 9.56 0 21.347v11.154c0 5.228 4.309 9.505 9.575 9.505h23.85c5.266 0 9.575-4.277 9.575-9.505V21.347z" id="v"/></defs><g fill="none" fill-rule="evenodd"><g transform="translate(9 -35)"><ellipse fill="#E7D9FC" cx="148.986" cy="148.028" rx="108.403" ry="108.374"/><g stroke-linecap="round" stroke-width="4"><path d="M151.066 40c47.502 0 87.77 31.556 101.697 75.21" stroke="#EF52D1"/><path d="M46.533 115.21C60.291 71.586 102.39 40 150 40" stroke="#7C40FF"/></g><g transform="translate(36.404 40.31)"><mask id="b" fill="#fff"><use xlink:href="#a"/></mask><g mask="url(#b)" fill="#C4B9E8"><path d="M7.362 173.127L2 179.85a3.138 3.138 0 0 0 2.453 5.094h214.174a3.138 3.138 0 0 0 2.35-5.217l-5.843-6.601H7.362z"/></g><g mask="url(#b)"><path d="M5.266 169.994l2.16 5.964a4.482 4.482 0 0 0 4.214 2.956h201.017a4.482 4.482 0 0 0 4.29-3.183l1.738-5.737" fill="#AE9ECE"/><path d="M8.094 172.647c-.899 0-1.769-.4-2.46-1.132-1.639-1.733-1.865-4.832-.506-6.922l20.852-32.061c1.57-2.412 3.899-3.808 6.356-3.808h158.742c2.417 0 4.712 1.35 6.28 3.694l21.5 32.122c.595.89.923 2.022.923 3.192 0 2.715-1.726 4.915-3.854 4.915H8.094z" fill="#FFF9FC"/></g><g mask="url(#b)" fill="#D1CEE6" fill-rule="nonzero"><path d="M212.993 165.244l-19.573-33.62a2.69 2.69 0 0 0-2.325-1.336H31.828a2.69 2.69 0 0 0-2.347 1.376l-18.402 32.89a1.793 1.793 0 0 0 1.558 2.667l198.8.718a1.793 1.793 0 0 0 1.556-2.695zm-204.9 7.403c-.898 0-1.768-.4-2.46-1.132-1.638-1.733-1.864-4.832-.505-6.922l20.852-32.061c1.57-2.412 3.899-3.808 6.356-3.808h158.742c2.417 0 4.712 1.35 6.28 3.694l21.5 32.122c.595.89.923 2.022.923 3.192 0 2.715-1.726 4.915-3.854 4.915H8.094z"/></g><g mask="url(#b)"><path d="M31.643 21.335H190.59a6.723 6.723 0 0 1 6.723 6.84l-1.663 96.419a5.379 5.379 0 0 1-5.378 5.286H32.202a5.379 5.379 0 0 1-5.378-5.273L24.92 28.191a6.723 6.723 0 0 1 6.722-6.856z" fill="#353541"/><path d="M8.094 171.9h207.833c1.67 0 3.106-1.832 3.106-4.168 0-1.026-.285-2.012-.796-2.776l-21.5-32.122c-1.435-2.146-3.504-3.363-5.659-3.363H32.336c-2.192 0-4.292 1.259-5.73 3.468L5.755 165.001c-1.173 1.804-.975 4.522.422 6 .555.588 1.232.9 1.918.9z" stroke="#353541" stroke-width="1.494"/><path d="M5.18 170.472l1.412 5.606a4.482 4.482 0 0 0 4.347 3.387h202.408a4.482 4.482 0 0 0 4.399-3.62l1.054-5.373" stroke="#353541" stroke-width="1.494" stroke-linecap="round"/><path d="M99.84 172.031v.527a1.793 1.793 0 0 0 1.793 1.789h16.793c.97 0 1.763-.77 1.792-1.739l.02-.652" stroke="#353541" stroke-width="1.494" stroke-linecap="round"/></g><g mask="url(#b)"><path d="M32.53 23.408l-.103.001a5.155 5.155 0 0 0-5.051 5.256l1.876 94.544a4.706 4.706 0 0 0 4.706 4.613h154.674a4.706 4.706 0 0 0 4.705-4.625l1.64-94.545v-.089a5.155 5.155 0 0 0-5.154-5.155H32.529z" stroke="#DFDFDF" stroke-width="1.345"/><path d="M45.678 129.545H173.78a.9.9 0 0 1 .81.51l.974 2.046a.896.896 0 0 1-.81 1.282H44.704a.896.896 0 0 1-.81-1.282l.975-2.045a.896.896 0 0 1 .809-.511z" fill="#353541"/><path d="M33.762 151.916l6.461-11.073a5.379 5.379 0 0 1 4.646-2.668h130.548c1.64 0 3.15.896 3.935 2.336l6.246 11.45a1.793 1.793 0 0 1-1.574 2.651H35.31a1.793 1.793 0 0 1-1.548-2.696z" fill="#DCD7E7"/></g></g><path fill="#FFF" d="M68.726 68.78h157.792l-1.483 94.274H70.217z"/><g transform="translate(74.99 75.808)" opacity=".07"><path d="M6.803 4.472L9.672 7.37m.394-6.195l2.87 2.898M5.422 5.866l2.87 2.898m-6.162.428l2.869 2.899" stroke="#4C4C4C" stroke-width=".604" stroke-linecap="round" stroke-linejoin="round"/><path d="M13.428 3.804C10.963 5.747 8.43 2.56 5.965 5.05s1.025 5.308-1.558 7.917m9.395-9.501a4.03 4.03 0 0 1-.374.338M10.234.807c.13-.185.274-.359.434-.518" stroke="#4C4C4C" stroke-width="1.108" stroke-linecap="round" stroke-linejoin="round"/><path d="M1.272 9.79c2.583-2.61 5.255 1.036 7.838-1.574 2.415-2.44-.582-4.95 1.134-7.4" stroke="#4C4C4C" stroke-width="1.108" stroke-linecap="round" stroke-linejoin="round"/><path d="M65.533 48.492l2.88 2.848m.384-6.095l2.878 2.858m-7.522 1.753l2.879 2.859m-6.172.418l2.879 2.858" stroke="#4C4C4C" stroke-width=".599" stroke-linecap="round" stroke-linejoin="round"/><path d="M72.168 47.835c-2.464 1.902-4.998-1.225-7.463 1.225s1.025 5.218-1.558 7.778m9.395-9.332a4.007 4.007 0 0 1-.374.329m-3.194-2.948c.13-.182.275-.352.434-.508" stroke="#4C4C4C" stroke-width="1.098" stroke-linecap="round" stroke-linejoin="round"/><path d="M60.012 53.72c2.583-2.569 5.255 1.016 7.838-1.553 2.416-2.4-.582-4.87 1.134-7.28" stroke="#4C4C4C" stroke-width="1.098" stroke-linecap="round" stroke-linejoin="round"/><path d="M110.461 69.944l2.879 2.859m.384-6.096l2.88 2.849m-7.524 1.763l2.88 2.848m-6.172.418l2.879 2.859" stroke="#4C4C4C" stroke-width=".599" stroke-linecap="round" stroke-linejoin="round"/><path d="M117.096 69.287c-2.465 1.902-4.998-1.225-7.463 1.225s1.025 5.219-1.558 7.778" stroke="#4C4C4C" stroke-width="1.098" stroke-linecap="round" stroke-linejoin="round"/><path d="M117.47 68.958a4.007 4.007 0 0 1-.374.329m-3.194-2.938c.13-.182.275-.352.434-.508" stroke="#4C4C4C" stroke-width="1.098" fill="#000" fill-rule="nonzero" stroke-linecap="round" stroke-linejoin="round"/><path d="M104.94 75.173c2.583-2.57 5.255 1.016 7.838-1.554 2.415-2.4-.582-4.87 1.134-7.28" stroke="#4C4C4C" stroke-width="1.098" stroke-linecap="round" stroke-linejoin="round"/><path d="M136.4 28.643l2.83-2.908m-6.044-.389l2.83-2.908m1.735 7.599l2.83-2.908m.414 6.235l2.83-2.908" stroke="#4C4C4C" stroke-width=".599" stroke-linecap="round" stroke-linejoin="round"/><path d="M135.75 21.94c1.883 2.49-1.213 5.05 1.212 7.54 2.426 2.49 5.166-1.036 7.7 1.573m-9.238-9.491c.116.12.224.246.325.378m-2.908 3.227a3.837 3.837 0 0 1-.503-.438" stroke="#4C4C4C" stroke-width="1.098" stroke-linecap="round" stroke-linejoin="round"/><path d="M141.576 34.22c-2.543-2.61 1.006-5.308-1.538-7.917-2.376-2.44-4.82.587-7.207-1.146" stroke="#4C4C4C" stroke-width="1.098" stroke-linecap="round" stroke-linejoin="round"/><path d="M37.08 6.842c-1.903.299-2.968 3.595-2.297 4.322.236.25.73.25.759.24.513-.01.71-.38 1.577-.728.192-.088.394-.151.602-.189.73-.09 1.055.369 1.912.478.355.05.908.12 1.075-.11.493-.657-1.479-4.352-3.628-4.013zm-2.15-.986c.395.757.247 1.604-.315 1.892-.562.29-1.34-.09-1.735-.846-.394-.757-.246-1.604.315-1.892.562-.29 1.341.09 1.736.846zm2.258-2.4c.306 1.056.02 2.061-.64 2.25-.661.19-1.43-.517-1.736-1.583-.305-1.065-.02-2.061.641-2.25.66-.19 1.44.527 1.735 1.583zm2.899.488c-.237.976-.927 1.653-1.538 1.504-.611-.15-.907-1.066-.66-2.042.246-.976.926-1.653 1.537-1.504.612.15.898 1.056.661 2.042zm2.07 2.948c-.345.916-1.124 1.474-1.735 1.245-.611-.23-.818-1.156-.473-2.072.345-.916 1.124-1.474 1.735-1.245.611.23.818 1.156.473 2.072zm7.168 65.432c-1.923-.02-3.53 3.058-2.987 3.885.187.288.68.358.7.368.512.07.769-.259 1.676-.448a2.51 2.51 0 0 1 .63-.09c.74.03.977.538 1.815.787.335.1.867.269 1.084.07.582-.578-.75-4.552-2.918-4.572zM47.373 71c.256.807-.02 1.623-.631 1.812-.611.19-1.311-.308-1.568-1.125-.256-.817.02-1.623.631-1.813.612-.189 1.302.32 1.568 1.126zm2.622-1.992c.119 1.096-.325 2.042-1.005 2.111-.68.07-1.331-.747-1.45-1.842-.118-1.096.326-2.042 1.006-2.111.68-.07 1.331.746 1.45 1.842zm2.781.946c-.405.926-1.193 1.484-1.765 1.235-.572-.249-.72-1.195-.316-2.121.405-.926 1.193-1.484 1.765-1.235.572.249.71 1.195.316 2.121zm1.538 3.256c-.493.847-1.351 1.276-1.923.947-.572-.329-.621-1.275-.118-2.121.503-.847 1.35-1.275 1.922-.946.572.328.621 1.274.119 2.12zm71.527-22.338c-1.922-.02-3.53 3.058-2.987 3.884.187.29.68.359.7.369.513.07.769-.26 1.676-.448a2.51 2.51 0 0 1 .63-.09c.74.03.977.538 1.815.787.335.1.868.269 1.084.07.592-.588-.749-4.552-2.918-4.572zm-1.951-1.324c.255.806-.02 1.623-.632 1.812-.611.19-1.311-.309-1.567-1.125-.257-.817.02-1.624.63-1.813.612-.19 1.302.309 1.568 1.126zm2.631-2.002c.119 1.095-.325 2.041-1.005 2.111-.68.07-1.331-.747-1.45-1.842-.118-1.096.326-2.042 1.006-2.112.68-.07 1.321.757 1.45 1.843zm2.771.956c-.404.926-1.193 1.484-1.765 1.235-.572-.25-.72-1.195-.315-2.122.404-.926 1.193-1.484 1.764-1.235.572.25.71 1.196.316 2.122zm1.548 3.257c-.493.846-1.35 1.274-1.923.946-.572-.329-.62-1.275-.118-2.122.503-.846 1.35-1.274 1.922-.946.572.329.612 1.275.119 2.122z" fill="#4C4C4C" fill-rule="nonzero"/><path d="M.04 47.954l1.36 1.364m0-1.364L.04 49.318" stroke="#4C4C4C" stroke-width="1.084" stroke-linecap="round" stroke-linejoin="round"/><path d="M1.203 53.013c.66-.537 1.33.3 1.991-.249.66-.547-.01-1.374.651-1.922.66-.548 1.331.299 1.992-.249.66-.547-.01-1.374.65-1.922.66-.548 1.331.299 1.992-.249.66-.548-.01-1.374.66-1.922" stroke="#4C4C4C" stroke-width="1.108" stroke-linecap="round" stroke-linejoin="round"/><ellipse stroke="#4C4C4C" stroke-width="1.192" stroke-linecap="round" stroke-linejoin="round" cx="10.855" cy="52.655" rx="1.617" ry="1.633"/><path d="M70.453 6.244a.271.271 0 0 1-.099.379l-3.628 2.022a.274.274 0 0 1-.266 0l-3.618-2.022a.268.268 0 0 1-.099-.379L66.371.31a.275.275 0 0 1 .464 0l3.618 5.935z" fill="#4C4C4C" fill-rule="nonzero"/><path d="M69.516 8.376a.264.264 0 0 1 .337.045.27.27 0 0 1 .018.343l-3.046 4.193a.275.275 0 0 1-.444 0l-3.046-4.193a.271.271 0 0 1 .018-.343.264.264 0 0 1 .337-.045l2.78 1.573a.274.274 0 0 0 .266 0l2.78-1.573zm74.249 62.923a.271.271 0 0 1-.099.378l-3.628 2.022a.274.274 0 0 1-.266 0l-3.618-2.032a.268.268 0 0 1-.099-.378l3.628-5.936a.275.275 0 0 1 .464 0l3.618 5.946z" fill="#4C4C4C" fill-rule="nonzero"/><path d="M142.819 73.42a.264.264 0 0 1 .337.045c.086.095.094.24.017.343l-3.046 4.193a.275.275 0 0 1-.444 0l-3.046-4.193a.271.271 0 0 1 .018-.343.264.264 0 0 1 .337-.045l2.78 1.574a.274.274 0 0 0 .266 0l2.78-1.574zM41.014 50.235a.271.271 0 0 1-.099.378l-3.628 2.022a.274.274 0 0 1-.266 0l-3.628-2.022a.268.268 0 0 1-.099-.378l3.628-5.936a.275.275 0 0 1 .464 0l3.628 5.936z" fill="#4C4C4C" fill-rule="nonzero"/><path d="M40.067 52.366a.264.264 0 0 1 .337.045.27.27 0 0 1 .018.343l-3.046 4.193a.275.275 0 0 1-.444 0l-3.046-4.193a.271.271 0 0 1 .018-.343.264.264 0 0 1 .337-.045l2.78 1.574a.274.274 0 0 0 .266 0l2.78-1.574zM103.865 7.37c0 2.34-1.607 3.645-3.598 3.645-1.992 0-3.599-1.305-3.599-3.645s2.011-4.611 3.599-4.611c1.587 0 3.598 2.27 3.598 4.61z" fill="#4C4C4C" fill-rule="nonzero"/><g transform="translate(96.619 2.689)"><mask id="d" fill="#fff"><use xlink:href="#c"/></mask><g mask="url(#d)" fill="#FFF" fill-rule="nonzero"><path d="M5.738.2c-1.942.557-2.376.826-2.346.965.03.14.6.2.936.18A2.523 2.523 0 0 0 5.945.578m1.124 1.274c-1.35-.04-2.09.359-2.435.598-.119.08-.395.269-.355.378.04.11.907.03 1.42-.07a15.537 15.537 0 0 0 1.971-.487m-.108 1.255C6.24 4.063 5.62 4.58 5.324 4.89c-.118.12-.355.378-.286.508s.168.12.621.04c.454-.08 1.252-.299 2.465-.966M7.562 7.49c-.483-.38-1.36-.927-2.347-.857-.236.02-.62.05-.778.309-.158.259.069.747.157.906.434.777 1.351 1.006 1.686 1.076M2.346 5.129c1.49-.17 1.913-.378 1.933-.578.02-.199-.138-.229-.316-.348a2.056 2.056 0 0 0-1.242-.379"/></g></g><path d="M103.865 7.37c0 2.34-1.607 3.645-3.598 3.645-1.992 0-3.599-1.305-3.599-3.645s2.011-4.611 3.599-4.611c1.587 0 3.598 2.27 3.598 4.61z" stroke="#4C4C4C" stroke-width=".639"/><path d="M99.537 7.28c0 3.177-2.189 4.95-4.88 4.95-2.692 0-4.88-1.773-4.88-4.95 0-3.177 2.72-6.254 4.88-6.254 2.16 0 4.88 3.077 4.88 6.254z" stroke="#FFF" stroke-width="1.598" fill="#FFF" fill-rule="nonzero"/><path d="M99.537 7.28c0 3.177-2.189 4.95-4.88 4.95-2.692 0-4.88-1.773-4.88-4.95 0-3.177 2.72-6.254 4.88-6.254 2.16 0 4.88 3.077 4.88 6.254z" fill="#4C4C4C" fill-rule="nonzero"/><g transform="translate(89.718 .996)"><mask id="f" fill="#fff"><use xlink:href="#e"/></mask><g mask="url(#f)" fill="#FFF" fill-rule="nonzero"><g transform="translate(-.69 -.697)"><ellipse cx="3.806" cy="1.773" rx="1" ry="1.036"/><path d="M8.873 6.075c.07.638-.305 1.205-.848 1.265C7.483 7.4 7 6.922 6.931 6.284c-.07-.637.306-1.205.848-1.265.542-.06 1.025.419 1.094 1.056zM.868 10.846c1.193-.847 2.1-.956 2.75-.837.868.16 1.035.677 1.795.657 1.035-.03 1.193-1.005 2.464-1.274.661-.14 1.706-.11 2.15.508.443.617.138 1.772-.267 2.31-1.626 2.221-7.808.02-8.163-.11M.976 2.699c.07.02 2.445 1.763 2.327 3.486C3.184 7.908 2.02 7.22 2.02 7.22S.75 6.573.09 4.302M9.958.15c.01.07-.562 2.947-2.18 3.575-1.616.627-1.488-.717-1.488-.717S6.33 1.603 8.114.03"/><ellipse cx="4.87" cy="4.681" rx="1" ry="1"/><ellipse cx="5.334" cy="8.097" rx="1" ry="1"/></g></g></g><path d="M99.537 7.28c0 3.177-2.189 4.95-4.88 4.95-2.692 0-4.88-1.773-4.88-4.95 0-3.177 2.72-6.254 4.88-6.254 2.16 0 4.88 3.077 4.88 6.254z" stroke="#4C4C4C" stroke-width=".639"/><path d="M24.55 28.643c0 2.38-1.608 3.705-3.6 3.705-1.991 0-3.598-1.325-3.598-3.705s2.011-4.69 3.599-4.69c1.587 0 3.598 2.31 3.598 4.69z" fill="#4C4C4C" fill-rule="nonzero"/><g transform="translate(17.352 23.902)"><mask id="h" fill="#fff"><use xlink:href="#g"/></mask><g mask="url(#h)" fill="#FFF" fill-rule="nonzero"><path d="M5.689.19c-1.943.567-2.376.836-2.347.985.03.15.602.2.927.18.868-.05 1.44-.598 1.617-.787M7.02 1.872c-1.351-.04-2.09.369-2.436.608-.118.09-.394.269-.354.378.039.11.907.03 1.42-.07a15.32 15.32 0 0 0 1.971-.487m-.108 1.274C6.19 4.123 5.57 4.651 5.275 4.97c-.119.12-.355.378-.286.518.069.139.167.129.62.05.454-.08 1.253-.3 2.466-.987m-.562 3.058c-.483-.379-1.36-.946-2.357-.877-.236.02-.62.05-.779.31-.157.258.07.756.158.915.434.787 1.35 1.026 1.686 1.096M2.297 5.209c1.489-.17 1.913-.389 1.933-.578.02-.19-.138-.229-.316-.358a2.036 2.036 0 0 0-1.242-.379"/></g></g><path d="M24.55 28.643c0 2.38-1.608 3.705-3.6 3.705-1.991 0-3.598-1.325-3.598-3.705s2.011-4.69 3.599-4.69c1.587 0 3.598 2.31 3.598 4.69z" stroke="#4C4C4C" stroke-width=".644"/><path d="M20.221 28.563c0 3.227-2.189 5.03-4.88 5.03-2.692 0-4.88-1.803-4.88-5.03 0-3.227 2.72-6.364 4.88-6.364 2.159 0 4.88 3.128 4.88 6.364z" stroke="#FFF" stroke-width="1.611" fill="#FFF" fill-rule="nonzero"/><path d="M20.221 28.563c0 3.227-2.189 5.03-4.88 5.03-2.692 0-4.88-1.803-4.88-5.03 0-3.227 2.72-6.364 4.88-6.364 2.159 0 4.88 3.128 4.88 6.364z" fill="#4C4C4C" fill-rule="nonzero"/><g transform="translate(10.45 22.11)"><mask id="j" fill="#fff"><use xlink:href="#i"/></mask><g mask="url(#j)" fill="#FFF" fill-rule="nonzero"><g transform="translate(-.69 -.697)"><ellipse cx="3.756" cy="1.852" rx="1" ry="1.056"/><ellipse transform="rotate(-6.2 7.88 6.317)" cx="7.881" cy="6.317" rx="1" ry="1.185"/><path d="M.818 11.085c1.193-.867 2.1-.976 2.751-.857.868.17 1.035.697 1.794.677 1.036-.03 1.193-1.025 2.465-1.304.66-.14 1.706-.11 2.15.518.443.627.137 1.802-.267 2.35-1.627 2.25-7.808.02-8.163-.11m-.621-9.57c.069.02 2.445 1.792 2.326 3.545C3.135 8.087 1.972 7.39 1.972 7.39S.71 6.742.039 4.432M9.908.2c.01.069-.562 2.997-2.178 3.634-1.617.638-1.49-.727-1.49-.727S6.28 1.673 8.066.08"/><ellipse cx="4.821" cy="4.8" rx="1" ry="1"/><ellipse cx="5.284" cy="8.286" rx="1" ry="1"/></g></g></g><path d="M20.221 28.563c0 3.227-2.189 5.03-4.88 5.03-2.692 0-4.88-1.803-4.88-5.03 0-3.227 2.72-6.364 4.88-6.364 2.159 0 4.88 3.128 4.88 6.364z" stroke="#4C4C4C" stroke-width=".644"/><path d="M88.495 72.822c0 2.38-1.607 3.705-3.599 3.705-1.991 0-3.598-1.324-3.598-3.705 0-2.38 2.011-4.69 3.598-4.69 1.588 0 3.599 2.31 3.599 4.69z" fill="#4C4C4C" fill-rule="nonzero"/><g transform="translate(81.239 68.122)"><mask id="l" fill="#fff"><use xlink:href="#k"/></mask><g mask="url(#l)" fill="#FFF" fill-rule="nonzero"><path d="M5.748.14c-1.942.567-2.376.836-2.356.985.02.15.6.2.926.18.868-.05 1.44-.598 1.617-.787m1.144 1.305c-1.35-.04-2.09.368-2.435.607-.119.09-.395.269-.355.379.04.11.907.03 1.42-.07A15.32 15.32 0 0 0 7.68 2.25m-.108 1.276C6.25 4.073 5.63 4.6 5.334 4.92c-.119.12-.355.378-.286.518s.167.13.621.05c.453-.08 1.252-.3 2.465-.986M7.572 7.56c-.483-.38-1.36-.947-2.357-.877-.236.02-.62.05-.778.308-.158.26.069.757.157.917.434.786 1.351 1.025 1.686 1.095M2.356 5.159c1.489-.17 1.913-.388 1.933-.588.02-.199-.138-.229-.306-.358a2.036 2.036 0 0 0-1.242-.379"/></g></g><path d="M88.495 72.822c0 2.38-1.607 3.705-3.599 3.705-1.991 0-3.598-1.324-3.598-3.705 0-2.38 2.011-4.69 3.598-4.69 1.588 0 3.599 2.31 3.599 4.69z" stroke="#4C4C4C" stroke-width=".644"/><path d="M84.167 72.733c0 3.227-2.189 5.03-4.88 5.03-2.692 0-4.88-1.803-4.88-5.03 0-3.227 2.72-6.364 4.88-6.364 2.159 0 4.88 3.137 4.88 6.364z" stroke="#FFF" stroke-width="1.611" fill="#FFF" fill-rule="nonzero"/><path d="M84.167 72.733c0 3.227-2.189 5.03-4.88 5.03-2.692 0-4.88-1.803-4.88-5.03 0-3.227 2.72-6.364 4.88-6.364 2.159 0 4.88 3.137 4.88 6.364z" fill="#4C4C4C" fill-rule="nonzero"/><g transform="translate(74.337 66.329)"><mask id="n" fill="#fff"><use xlink:href="#m"/></mask><g mask="url(#n)" fill="#FFF" fill-rule="nonzero"><g transform="translate(-.592 -.697)"><ellipse cx="3.717" cy="1.803" rx="1" ry="1.056"/><ellipse transform="rotate(-6.2 7.861 6.204)" cx="7.861" cy="6.204" rx="1" ry="1.185"/><path d="M.779 11.035c1.193-.867 2.1-.976 2.75-.847.868.17 1.036.698 1.795.678 1.035-.03 1.193-1.026 2.465-1.295.66-.14 1.705-.11 2.149.518.444.627.138 1.802-.266 2.35-1.627 2.251-7.809.02-8.164-.11m-.621-9.59c.07.02 2.445 1.792 2.327 3.545C3.096 8.037 1.932 7.34 1.932 7.34S.661 6.683 0 4.382M9.869.15c.01.07-.562 2.997-2.179 3.635-1.617.637-1.489-.727-1.489-.727S6.241 1.623 8.025.03"/><ellipse cx="4.782" cy="4.761" rx="1" ry="1"/><ellipse cx="5.245" cy="8.236" rx="1" ry="1"/></g></g></g><path d="M84.167 72.733c0 3.227-2.189 5.03-4.88 5.03-2.692 0-4.88-1.803-4.88-5.03 0-3.227 2.72-6.364 4.88-6.364 2.159 0 4.88 3.137 4.88 6.364z" stroke="#4C4C4C" stroke-width=".644"/><path d="M131.58 6.942a2.43 2.43 0 0 1-.366 2.22l-3.194 3.994a.186.186 0 0 1-.246.05l-4.536-2.33h-.01a2.436 2.436 0 0 1-1.26-2.403 2.423 2.423 0 0 1 1.734-2.08 2.47 2.47 0 0 1 3.066 1.584 2.454 2.454 0 0 1 2.14-2.699 2.473 2.473 0 0 1 2.671 1.664zM120.448 2.61c.184.26.229.596.119.896l-.76 1.892a.07.07 0 0 1-.033.044.068.068 0 0 1-.055.006l-2.012-.379a.977.977 0 0 1-.68-.528.99.99 0 0 1 1.706-.986.985.985 0 0 1-.009-.75.971.971 0 0 1 .521-.534 1 1 0 0 1 1.203.338zm5.788.169a.802.802 0 0 1-.237.707l-1.252 1.145a.059.059 0 0 1-.089 0l-1.36-.996a.81.81 0 0 1-.316-.637c0-.432.328-.792.754-.826a.82.82 0 0 1 .873.696.823.823 0 0 1 .773-.791.82.82 0 0 1 .854.702zm3.46-1.803a.597.597 0 0 1-.315.458l-1.134.548a.049.049 0 0 1-.06-.01l-.749-.996a.592.592 0 0 1-.088-.518.61.61 0 0 1 .67-.418.606.606 0 0 1 .513.677.61.61 0 0 1 .769-.368c.257.094.42.352.394.627z" fill="#4C4C4C" fill-rule="nonzero"/><path d="M73.736 32.726l1.35-1.344m-1.35 0l1.35 1.344" stroke="#4C4C4C" stroke-width="1.075" stroke-linecap="round" stroke-linejoin="round"/><path d="M82.61 30.117c-.79-.319-.405-1.305-1.194-1.623-.789-.32-1.183.677-1.972.358-.788-.319-.404-1.305-1.193-1.623-.788-.319-1.183.677-1.971.358-.79-.318-.405-1.304-1.193-1.623-.789-.319-1.183.677-1.972.358" stroke="#4C4C4C" stroke-width="1.098" stroke-linecap="round" stroke-linejoin="round"/><ellipse stroke="#4C4C4C" stroke-width="1.182" stroke-linecap="round" stroke-linejoin="round" cx="85.498" cy="24.669" rx="1.617" ry="1.613"/><path d="M113.212 27.518a.271.271 0 0 1-.099.378l-3.628 2.022a.274.274 0 0 1-.266 0l-3.618-2.032a.268.268 0 0 1-.1-.378l3.63-5.936a.275.275 0 0 1 .462 0l3.619 5.946z" fill="#4C4C4C" fill-rule="nonzero"/><path d="M112.275 29.649a.264.264 0 0 1 .337.045.27.27 0 0 1 .018.343l-3.046 4.193a.275.275 0 0 1-.444 0l-3.047-4.193a.271.271 0 0 1 .018-.343.264.264 0 0 1 .337-.045l2.78 1.573a.274.274 0 0 0 .267 0l2.78-1.573zm-9.612 21.273a2.43 2.43 0 0 1-.365 2.22l-3.195 3.995a.186.186 0 0 1-.246.05l-4.525-2.341h-.01a2.436 2.436 0 0 1-1.26-2.402 2.423 2.423 0 0 1 1.733-2.08 2.47 2.47 0 0 1 3.066 1.584c-.138-1.34.815-2.543 2.14-2.7a2.473 2.473 0 0 1 2.662 1.674zM91.532 46.59c.184.26.228.596.118.896l-.76 1.892a.07.07 0 0 1-.033.045.068.068 0 0 1-.055.005l-2.011-.378a.977.977 0 0 1-.68-.528.99.99 0 0 1 1.706-.986.985.985 0 0 1-.01-.75.971.971 0 0 1 .522-.535 1 1 0 0 1 1.203.339zm5.787.169a.802.802 0 0 1-.237.707l-1.252 1.145a.059.059 0 0 1-.089 0l-1.36-.996a.81.81 0 0 1-.316-.637c0-.432.328-.792.754-.826a.82.82 0 0 1 .873.697.823.823 0 0 1 .773-.792.82.82 0 0 1 .854.702zm3.471-1.803a.597.597 0 0 1-.316.458l-1.134.548a.049.049 0 0 1-.06-.01l-.748-.996a.592.592 0 0 1-.09-.518.61.61 0 0 1 .671-.418.606.606 0 0 1 .513.677.61.61 0 0 1 .769-.368c.257.094.42.352.394.627zM44.553 28.404a2.43 2.43 0 0 0 .365 2.22l3.194 3.995c.058.078.164.1.247.05l4.535-2.341h.01a2.447 2.447 0 0 0 1.24-2.404 2.434 2.434 0 0 0-1.723-2.078 2.47 2.47 0 0 0-3.066 1.584c.138-1.34-.816-2.543-2.14-2.7a2.473 2.473 0 0 0-2.662 1.674zm-2.751-6.045c.012.32.177.614.444.786l1.745 1.076a.08.08 0 0 0 .099-.01l1.38-1.494a.97.97 0 0 0 .227-.826.988.988 0 0 0-1.016-.797.982.982 0 0 0-.936 1.016.985.985 0 0 0-1.943.249zm6.162 1.195a.804.804 0 0 0 .03.747l.887 1.434a.06.06 0 0 0 .08.03l1.586-.588a.806.806 0 0 0 .507-.74.807.807 0 0 0-.487-.754.825.825 0 0 0-1.074.399.814.814 0 0 0-.095-.613.8.8 0 0 0-.497-.363.826.826 0 0 0-.937.448zm5.058-.777a.602.602 0 0 0-.148.538l.306 1.215a.05.05 0 0 0 .05.04l1.251-.06a.61.61 0 0 0 .454-.27.602.602 0 0 0-.099-.786.607.607 0 0 0-.848.04.601.601 0 0 0-.197-.817.607.607 0 0 0-.769.1zM24.243 72.384a2.5 2.5 0 0 1-.364 2.261l-3.195 4.063a.186.186 0 0 1-.246.05l-4.535-2.37h-.01a2.5 2.5 0 0 1-1.19-2.752A2.471 2.471 0 0 1 17 71.73a2.466 2.466 0 0 1 2.443 1.71 2.488 2.488 0 0 1 1.918-2.766 2.462 2.462 0 0 1 2.883 1.71zm-11.13-4.402c.182.265.226.603.118.907l-.76 1.932a.07.07 0 0 1-.033.044.068.068 0 0 1-.055.005l-2.011-.388a.993.993 0 0 1-.766-.916.996.996 0 0 1 .661-.996.98.98 0 0 1 1.13.368 1 1 0 0 1 .435-1.251.98.98 0 0 1 1.28.295zm5.787.17a.832.832 0 0 1-.237.717l-1.252 1.165a.059.059 0 0 1-.089 0l-1.35-1.006a.832.832 0 0 1-.254-.964.817.817 0 0 1 .849-.509.822.822 0 0 1 .716.686.822.822 0 0 1 .77-.75.82.82 0 0 1 .847.66zm3.47-1.833a.607.607 0 0 1-.315.458l-1.134.558a.049.049 0 0 1-.06-.02l-.748-1.016a.612.612 0 0 1 .02-.735.597.597 0 0 1 .708-.176.609.609 0 0 1 .356.642.603.603 0 1 1 1.173.289z" fill="#4C4C4C" fill-rule="nonzero"/></g><path fill="#FFF" d="M68.558 68.78h158.038l-1.646 94.274h-2.5V73.1z"/><g transform="rotate(28 49.684 207.57)"><mask id="p" fill="#fff"><use xlink:href="#o"/></mask><g mask="url(#p)"><path fill="#C2B9E8" d="M112.167 190.174l8.498-4.518 7.162 46.91-11.334 6.025z"/><use fill="#FFF4BD" transform="rotate(88 -16.05 167.392)" xlink:href="#q"/><path d="M91.863 181.214c4.635 8.715 4.845 42.387 24.537 61.995 13.129 13.072 4.866 15.105-24.787 6.1-3.127-41.44-4.797-64.057-5.01-67.85-.112-2.024-4.204-7.58-4.317-11.567-.043-1.507.194-2.805 2.44-5.158-1.26 1.726.097 5.92.987 7.595 1.877 3.527 4.394 5.584 6.15 8.885z" fill="#FBDE8A"/><path d="M86.543 163.69c.905-.531 1.583.078 2.033 1.827.019-2.179.087-3.71.204-4.592-.674.104-3.596 3.561-2.237 2.765zm27.914-.419c-.94-.466-1.535.295-1.784 2.284-.178-2.787-.38-4.703-.605-5.748-.338-1.567 3.8 4.164 2.389 3.464zm-16.69-8.39c1 .451 1.718 1.56 2.15 3.326.174-1.787.812-2.943 1.914-3.468l-4.064.142z" fill="#353541"/><path d="M91.394 253.266l36.561-3.705c-8.587-39.238-12.968-61.96-13.164-68.318-.045-1.456.272-2.153 2.022-5.232 1.177-2.071 1.695-3.344 1.787-4.794.255-4.028-1.798-8.145-5.18-9.755l-.322-.154-.083-.347c-.774-3.236-1.995-5.137-4.795-6.435-2.822-1.307-5.89-.992-7.845.252l-.403.256-.402-.259c-1.761-1.133-5.199-1.07-7.382.292-2.498 1.558-3.55 3.04-4.425 6.821l-.08.35-.323.155c-3.885 1.871-5.283 5.797-4.64 10.065.117.786.424 1.671.92 2.722.268.566.566 1.136 1.011 1.945 1.79 3.256 2.094 3.902 2.14 5.096.248 6.334 1.783 30.024 4.603 71.045z" stroke="#353541" stroke-width="1.494"/></g></g><g transform="rotate(28 49.684 208.018)"><mask id="s" fill="#fff"><use xlink:href="#r"/></mask><g mask="url(#s)"><path fill="#C7B9E8" d="M162.747 166.885l37.911 24.226-24.453-31.382z"/><use fill="#FFF4BD" transform="rotate(43 -41.562 326.075)" xlink:href="#t"/><path d="M171.04 159.968c10.416 8.344 33.697 25.944 58.28 25.762 16.39-.122 13.013 7.077-10.13 21.597-30.87-26.537-47.692-41.046-50.467-43.527-1.48-1.323-8.163-2.335-11.004-5.019-1.074-1.014-3.057-7.299-1.028-8.333-.644 1.74 1.983 5.315 4.364 6.633 5.066 2.804 8.628 1.8 9.984 2.887z" fill="#FBDE8A"/><path d="M156.418 151.513c.26-.995 1.151-1.043 2.675-.142-1.497-1.523-2.51-2.63-3.04-3.324-.396.54-.024 4.96.365 3.466zm18.856-19.591c-.975.328-.859 1.267.348 2.818-2.055-1.808-3.523-2.996-4.403-3.564-1.32-.852 5.517.253 4.055.746zm-16.945 5.602c1.006-.38 2.27-.109 3.795.815-1.119-1.359-1.478-2.602-1.078-3.728l-2.717 2.913z" fill="#353541"/><path d="M221.772 210.203l22.75-27.879c-33.122-21.223-51.891-33.922-56.432-38.192-1.042-.98-1.306-1.682-2.227-5.032-.618-2.248-1.14-3.487-2.08-4.553-2.608-2.962-6.876-4.39-10.328-3.164l-.337.12-.304-.187c-2.774-1.703-4.933-2.173-7.767-1.132-2.856 1.048-4.761 3.389-5.253 5.6l-.104.466-.467.101c-2 .434-4.334 2.856-4.902 5.307-.651 2.806-.354 4.558 1.656 7.78l.19.304-.118.338c-1.394 3.981.353 7.663 3.75 10.17.625.462 1.45.862 2.52 1.245.577.207 1.178.395 2.047.647 3.498 1.016 4.157 1.253 5.019 2.05 4.558 4.215 22.026 19.558 52.387 46.011z" stroke="#353541" stroke-width="1.494"/></g></g><path d="M275 73.303c6.419.037 6.892-.36 11.372-5.303.183 6.351.256 7.022 5.304 11.376-6.8.222-7.34.474-11.371 5.302-.257-6.265-.384-6.793-5.305-11.375z" fill="#FFE343"/><path d="M241.268 57.945c3.58.02 3.844-.201 6.344-2.958.101 3.542.142 3.916 2.958 6.344-3.794.124-4.095.265-6.344 2.958-.143-3.494-.213-3.789-2.958-6.344z" fill="#FFA039"/><path d="M27 226.958c3.58.02 3.845-.2 6.344-2.958.102 3.542.143 3.916 2.958 6.344-3.793.125-4.095.265-6.344 2.958-.142-3.494-.213-3.788-2.958-6.344z" fill="#45EFF3"/><path d="M19 67.071c5.115.03 5.492-.287 9.063-4.226.145 5.06.204 5.595 4.226 9.063-5.42.178-5.85.379-9.063 4.226-.204-4.991-.305-5.412-4.226-9.063z" fill="#7C40FF"/><path d="M252 228.853c5.874.033 6.307-.33 10.407-4.853.167 5.812.234 6.426 4.854 10.41-6.224.204-6.718.434-10.407 4.853-.235-5.734-.35-6.217-4.854-10.41z" fill="#EF52D1"/><path d="M1 192.033c5.66-3.492 5.857-4.1 7.08-10.903 3.646 5.48 4.079 6.028 10.903 7.08-5.853 3.93-6.189 4.448-7.08 10.903-3.664-5.362-4.065-5.757-10.903-7.08z" fill="#FFA039"/></g><path d="M261.418 79a105.672 105.672 0 0 1 5.329 33.229c0 35.599-17.484 69.101-44.615 88.648" stroke="#FFA039" stroke-width="4" stroke-linecap="round"/><path d="M222.132 200.877c-17.95 12.77-42.624 20.327-66.585 20.327-23.971 0-46.126-7.547-64.08-20.327" stroke="#FFE343" stroke-width="4" stroke-linecap="round"/><path d="M92.291 201.774c-27.022-20.728-44.354-52.808-43.097-88.783.403-11.54 2.206-22.141 6.34-32.782" stroke="#45EFF3" stroke-width="4" stroke-linecap="round"/><circle cx="156.5" cy="81.5" r="33.5"/><path d="M173.914 109.572c9.889-6.18 15.44-16.674 15.74-27.518a33.344 33.344 0 0 0-5.082-18.644 33.353 33.353 0 0 0-16.52-13.569c-9.452-3.58-20.409-2.858-29.642 2.911-10.52 6.573-16.13 18.028-15.733 29.593a33.346 33.346 0 0 0 5.075 16.57 33.354 33.354 0 0 0 11.503 11.175 33.656 33.656 0 0 0 18.124 4.555 33.346 33.346 0 0 0 16.535-5.073z" fill="#E7D6FF"/><use fill="#EFE4FF" xlink:href="#u" transform="translate(135 58)"/><g transform="translate(135 57.994)"><mask id="w" fill="#fff"><use xlink:href="#v"/></mask><use fill="#F5EFFF" xlink:href="#v"/><path d="M10.681 1.749C15.135 1.749 19 2.871 24 5.006c3.333 1.423 7.333 4.423 12 9l1.53 12.75-2.01 9.6c-4.013 3.767-7.421 5.65-10.225 5.65-2.805 0 .139.228 8.83.686L39 42.006l2.985-1.816 1.599-3.833L43 30.835v-10.83l-.644-4.73-2.452-5.144-3.026-4.784-4.573-3.598L28.5.371 22.986-1 16.5-.674C9.652.94 7.712 1.749 10.681 1.749z" fill="#FFF" mask="url(#w)"/></g><path d="M174 80.367c0-3.103-.923-15.148-12.74-16.973-10.5-1.622-19.202 1.643-21.418 12.046-2.215 10.402-.185 20.074 7.57 20.987 7.756.913 9.97.548 18.095.182C173.63 96.244 174 83.47 174 80.367" stroke="#353541" fill="#FF5A9D"/><path d="M154 63c4.667.295 8.667 2.095 12 5.398 5 4.955 6.365 7.602 6.365 20.96 2.423 0-4.585 6.957-2.636 5.617 1.3-.894 2.178-2.028 2.636-3.403L174 82.877l-.972-9.524-2.028-4.21-2.241-2.257L162.472 63H154z" fill="#FCAECA"/><path d="M140.5 72.5c-.273 7.812.598 12.893 2.611 15.244 3.02 3.527 6.227 8.503 19.633 8.503 8.938 0 6.4.25-7.611.753l-9.001-.753-3.02-1.985-2.612-3.027L139 87v-6.184l1.5-8.316z" fill="#D82382"/><path d="M161.26 63.394c-10.5-1.622-19.202 1.643-21.418 12.046-2.215 10.402-.185 20.074 7.57 20.987 7.756.913 9.97.548 18.095.182C173.63 96.244 174 83.47 174 80.367c0-3.103-.923-15.148-12.74-16.973z" stroke="#353541"/><path d="M163.52 72c-3.222 0-5.969 2.045-7.02 4.91-1.052-2.865-3.798-4.91-7.02-4.91-4.132 0-7.48 3.358-7.48 7.5 0 4.142 3.348 7.5 7.48 7.5 3.222 0 5.968-2.044 7.02-4.91 1.051 2.866 3.798 4.91 7.02 4.91 4.131 0 7.48-3.358 7.48-7.5 0-4.142-3.349-7.5-7.48-7.5" stroke="#353541" stroke-width=".8" fill="#FFF"/><path d="M149.5 75a4.5 4.5 0 1 0 0 9 4.5 4.5 0 0 0 0-9m14 0a4.5 4.5 0 1 0 0 9 4.5 4.5 0 0 0 0-9" fill="#8422E0"/><path d="M154 76c0 1.105-1.12 2-2.5 2s-2.5-.895-2.5-2 1.12-2 2.5-2 2.5.895 2.5 2m14 0a2 2 0 1 1-4 0 2 2 0 0 1 4 0" fill="#FFF"/></g></svg>